<?xml version="1.0" encoding="UTF-8" standalone="no"?>
<!-- Created with Inkscape (http://www.inkscape.org/) -->

<svg
   width="130.00002mm"
   height="98mm"
   viewBox="0 0 130.00003 98"
   version="1.1"
   id="svg1"
   xml:space="preserve"
   xmlns="http://www.w3.org/2000/svg"
   xmlns:svg="http://www.w3.org/2000/svg"><defs
     id="defs1" /><g
     id="layer1"
     transform="translate(-40.800422,-96.229128)"><text
       xml:space="preserve"
       style="font-size:3.175px;white-space:pre;inline-size:148.195;display:inline;fill:#ff7304;fill-opacity:1;stroke-width:1000;stroke-dasharray:none"
       x="55.191635"
       y="110.03832"
       id="text1"
       transform="translate(-11.673246,78.129177)"><tspan
         x="55.191635"
         y="110.03832"
         id="tspan3"><tspan
           style="font-style:italic;font-weight:bold;font-size:25.4px;-inkscape-font-specification:'sans-serif, '"
           id="tspan1">MAT</tspan></tspan></text><text
       xml:space="preserve"
       style="font-size:3.175px;white-space:pre;inline-size:148.195;display:inline;fill:#03b584;fill-opacity:1;stroke-width:1000;stroke-dasharray:none"
       x="55.191635"
       y="110.03832"
       id="text1-3"
       transform="translate(50.234203,78.12168)"><tspan
         x="55.191635"
         y="110.03832"
         id="tspan7"><tspan
           style="font-style:italic;font-size:25.4px;-inkscape-font-specification:'sans-serif, '"
           id="tspan4">VISA</tspan></tspan></text><g
       id="g15"
       transform="matrix(0.16434077,0,0,0.16434077,64.872135,93.704429)"><path
         d="m 480.519,59.438 h -214.98 c -4.142,0 -7.5,3.358 -7.5,7.5 0,4.142 3.358,7.5 7.5,7.5 h 214.98 c 9.087,0 16.481,7.394 16.481,16.482 v 290.163 c 0,9.088 -7.394,16.482 -16.481,16.482 H 31.481 C 22.394,397.565 15,390.171 15,381.083 V 90.919 c 0,-9.088 7.394,-16.482 16.481,-16.482 h 199.418 c 4.142,0 7.5,-3.358 7.5,-7.5 0,-4.142 -3.358,-7.5 -7.5,-7.5 H 31.481 C 14.123,59.438 0,73.56 0,90.919 v 290.163 c 0,14.775 10.233,27.198 23.981,30.572 v 15.408 c 0,14.061 11.439,25.5 25.5,25.5 h 38.268 c 14.061,0 25.5,-11.439 25.5,-25.5 v -14.498 h 285.474 v 14.498 c 0,14.061 11.439,25.5 25.5,25.5 h 38.296 c 14.061,0 25.5,-11.439 25.5,-25.5 V 411.654 C 501.767,408.281 512,395.857 512,381.083 V 90.919 C 512,73.56 497.877,59.438 480.519,59.438 Z M 98.249,427.062 c 0,5.79 -4.71,10.5 -10.5,10.5 H 49.481 c -5.79,0 -10.5,-4.71 -10.5,-10.5 v -14.498 h 59.268 z m 374.77,0 c 0,5.79 -4.71,10.5 -10.5,10.5 h -38.296 c -5.79,0 -10.5,-4.71 -10.5,-10.5 v -14.498 h 59.296 z"
         id="path1"
         style="fill:#03b584;fill-opacity:1;stroke:#03b584;stroke-opacity:1" /><path
         d="m 373.624,252.572 h 92.863 c 4.142,0 7.5,-3.358 7.5,-7.5 0,-4.142 -3.358,-7.5 -7.5,-7.5 h -92.863 c -4.142,0 -7.5,3.358 -7.5,7.5 0,4.142 3.358,7.5 7.5,7.5 z"
         id="path2"
         style="fill:#03b584;fill-opacity:1;stroke:#03b584;stroke-opacity:1" /><path
         d="m 373.624,291.918 h 92.863 c 4.142,0 7.5,-3.358 7.5,-7.5 0,-4.142 -3.358,-7.5 -7.5,-7.5 h -92.863 c -4.142,0 -7.5,3.358 -7.5,7.5 0,4.142 3.358,7.5 7.5,7.5 z"
         id="path3"
         style="fill:#03b584;fill-opacity:1;stroke:#03b584;stroke-opacity:1" /><path
         d="m 211.711,317.809 c -2.928,-2.929 -7.706,-2.901 -10.635,0.028 -2.929,2.929 -2.929,7.678 0,10.606 1.464,1.464 3.384,2.197 5.303,2.197 1.919,0 3.839,-0.732 5.303,-2.197 l 0.057,-0.057 c 2.929,-2.928 2.901,-7.648 -0.028,-10.577 z"
         id="path4"
         style="fill:#03b584;fill-opacity:1;stroke:#03b584;stroke-opacity:1" /><path
         d="m 256.557,318.924 c -2.298,-3.446 -6.955,-4.377 -10.4,-2.08 l -0.085,0.057 c -3.447,2.297 -4.378,6.954 -2.08,10.4 1.445,2.168 3.823,3.341 6.247,3.341 1.43,0 2.875,-0.408 4.153,-1.261 l 0.085,-0.057 c 3.446,-2.297 4.377,-6.954 2.08,-10.4 z"
         id="path5"
         style="fill:#03b584;fill-opacity:1;stroke:#03b584;stroke-opacity:1" /><path
         d="m 201.076,361.039 c -2.929,2.929 -2.929,7.678 0,10.606 1.464,1.464 3.384,2.197 5.303,2.197 1.919,0 3.839,-0.732 5.303,-2.197 l 0.057,-0.057 c 2.929,-2.929 2.901,-7.649 -0.028,-10.578 -2.928,-2.928 -7.706,-2.901 -10.635,0.029 z"
         id="path6"
         style="fill:#03b584;fill-opacity:1;stroke:#03b584;stroke-opacity:1" /><path
         d="m 246.156,360.045 -0.085,0.057 c -3.447,2.297 -4.378,6.954 -2.08,10.4 1.445,2.168 3.823,3.341 6.247,3.341 1.43,0 2.875,-0.408 4.153,-1.261 l 0.085,-0.057 c 3.447,-2.297 4.378,-6.954 2.08,-10.4 -2.297,-3.446 -6.954,-4.377 -10.4,-2.08 z"
         id="path7"
         style="fill:#03b584;fill-opacity:1;stroke:#03b584;stroke-opacity:1" /><path
         d="m 300.505,318.884 c -2.288,-3.453 -6.943,-4.396 -10.395,-2.108 l -0.085,0.057 c -3.453,2.289 -4.396,6.943 -2.108,10.395 1.443,2.178 3.828,3.357 6.258,3.357 1.423,0 2.862,-0.405 4.137,-1.25 l 0.085,-0.057 c 3.453,-2.288 4.397,-6.942 2.108,-10.394 z"
         id="path8"
         style="fill:#03b584;fill-opacity:1;stroke:#03b584;stroke-opacity:1" /><path
         d="m 290.11,359.977 -0.085,0.057 c -3.453,2.289 -4.396,6.943 -2.108,10.395 1.443,2.178 3.828,3.357 6.258,3.357 1.423,0 2.862,-0.405 4.137,-1.25 l 0.085,-0.057 c 3.453,-2.289 4.396,-6.943 2.108,-10.395 -2.288,-3.451 -6.942,-4.395 -10.395,-2.107 z"
         id="path9"
         style="fill:#03b584;fill-opacity:1;stroke:#03b584;stroke-opacity:1" /><path
         d="M 120.915,135.437 H 83.497 c -4.142,0 -7.5,3.358 -7.5,7.5 0,4.142 3.358,7.5 7.5,7.5 h 37.417 c 4.142,0 7.5,-3.358 7.5,-7.5 0,-4.142 -3.357,-7.5 -7.499,-7.5 z"
         id="path10"
         style="fill:#03b584;fill-opacity:1;stroke:#03b584;stroke-opacity:1" /><path
         d="M 336.887,97.423 H 48.801 c -5.964,0 -10.816,4.853 -10.816,10.817 v 172.89 c 0,5.949 4.852,10.788 10.816,10.788 H 174.49 c 4.142,0 7.5,-3.358 7.5,-7.5 0,-4.142 -3.358,-7.5 -7.5,-7.5 H 52.984 V 202.17 h 22.859 c 3.52,0 9.4,0 14.085,7.586 l 7.163,12.724 c 4.327,7.667 11.127,12.063 18.659,12.063 h 0.019 c 7.531,-0.007 14.32,-4.409 18.624,-12.067 l 27.185,-48.248 c 1.578,-2.801 3.608,-4.408 5.569,-4.408 1.961,0 3.992,1.607 5.57,4.409 l 27.18,48.239 c 4.312,7.674 11.106,12.076 18.643,12.076 7.537,0 14.331,-4.401 18.638,-12.068 l 27.185,-48.248 c 1.577,-2.8 3.607,-4.407 5.569,-4.409 h 0.003 c 1.941,0 4.035,1.652 5.586,4.395 l 7.093,12.654 c 6.116,10.869 14.375,15.302 28.504,15.302 h 21.584 v 74.748 H 209.129 c -4.142,0 -7.5,3.358 -7.5,7.5 0,4.142 3.358,7.5 7.5,7.5 h 127.758 c 5.964,0 10.817,-4.839 10.817,-10.788 V 108.24 c 0,-5.965 -4.853,-10.817 -10.817,-10.817 z M 311.12,187.17 c -9.442,0 -12.251,-2.007 -15.426,-7.647 l -7.102,-12.669 c -4.328,-7.649 -11.126,-12.034 -18.655,-12.034 -0.006,0 -0.013,0 -0.019,0 -7.527,0.007 -14.316,4.398 -18.624,12.046 l -27.188,48.255 c -1.556,2.77 -3.637,4.423 -5.565,4.423 -1.928,0 -4.009,-1.654 -5.57,-4.431 l -27.184,-48.247 c -4.313,-7.656 -11.106,-12.047 -18.639,-12.046 -7.533,0 -14.326,4.391 -18.638,12.046 l -27.189,48.255 c -1.578,2.809 -3.607,4.421 -5.565,4.423 -0.001,0 -0.002,0 -0.003,0 -1.937,0 -4.03,-1.658 -5.593,-4.429 l -7.229,-12.841 c -0.043,-0.077 -0.088,-0.153 -0.134,-0.229 C 93.716,187.171 80.265,187.171 75.845,187.171 H 52.984 v -74.748 h 279.719 v 74.748 H 311.12 Z"
         id="path11"
         style="fill:#03b584;fill-opacity:1;stroke:#03b584;stroke-opacity:1" /><path
         d="m 37.984,344.741 c 0,16.046 13.054,29.101 29.1,29.101 16.046,0 29.1,-13.055 29.1,-29.101 0,-16.046 -13.054,-29.101 -29.1,-29.101 -16.046,0 -29.1,13.055 -29.1,29.101 z m 43.201,0 c 0,7.775 -6.325,14.101 -14.1,14.101 -7.775,0 -14.1,-6.326 -14.1,-14.101 0,-7.775 6.325,-14.101 14.1,-14.101 7.775,0 14.1,6.326 14.1,14.101 z"
         id="path12"
         style="fill:#03b584;fill-opacity:1;stroke:#03b584;stroke-opacity:1" /><path
         d="m 147.079,315.641 c -16.046,0 -29.1,13.055 -29.1,29.101 0,16.046 13.054,29.101 29.1,29.101 16.045,0 29.1,-13.055 29.1,-29.101 0,-16.046 -13.055,-29.101 -29.1,-29.101 z m 0,43.201 c -7.775,0 -14.1,-6.326 -14.1,-14.101 0,-7.775 6.325,-14.101 14.1,-14.101 7.774,0 14.1,6.326 14.1,14.101 0,7.775 -6.326,14.101 -14.1,14.101 z"
         id="path13"
         style="fill:#03b584;fill-opacity:1;stroke:#03b584;stroke-opacity:1" /><path
         d="m 420.056,205.289 c 29.738,0 53.932,-24.194 53.932,-53.933 0,-29.739 -24.194,-53.933 -53.932,-53.933 -29.738,0 -53.932,24.194 -53.932,53.933 0,29.739 24.194,53.933 53.932,53.933 z m -7.5,-92.134 v 32.191 c 0,4.142 3.358,7.5 7.5,7.5 4.142,0 7.5,-3.358 7.5,-7.5 v -32.191 c 17.89,3.506 31.432,19.299 31.432,38.201 0,21.467 -17.465,38.933 -38.932,38.933 -21.467,0 -38.932,-17.465 -38.932,-38.933 0,-18.902 13.542,-34.694 31.432,-38.201 z"
         id="path14"
         style="fill:#03b584;fill-opacity:1;stroke:#03b584;stroke-opacity:1" /><path
         d="m 330.691,329.746 v 29.935 c 0,7.777 6.314,14.105 14.076,14.105 h 115.115 c 7.777,0 14.105,-6.328 14.105,-14.105 v -29.935 c 0,-7.777 -6.328,-14.105 -14.105,-14.105 H 344.767 c -7.762,0 -14.076,6.327 -14.076,14.105 z m 15,0.895 h 113.296 v 28.145 H 345.691 Z"
         id="path15"
         style="fill:#03b584;fill-opacity:1;stroke:#03b584;stroke-opacity:1" /></g></g></svg>
